<?xml version="1.0" standalone="no"?><svg xmlns="http://www.w3.org/2000/svg" viewBox="0 0 1440 320"><path fill="#e5e5e5" fill-opacity="1" d="M0,32L30,53.3C60,75,120,117,180,112C240,107,300,53,360,64C420,75,480,149,540,176C600,203,660,181,720,149.3C780,117,840,75,900,64C960,53,1020,75,1080,117.3C1140,160,1200,224,1260,229.3C1320,235,1380,181,1410,154.7L1440,128L1440,0L1410,0C1380,0,1320,0,1260,0C1200,0,1140,0,1080,0C1020,0,960,0,900,0C840,0,780,0,720,0C660,0,600,0,540,0C480,0,420,0,360,0C300,0,240,0,180,0C120,0,60,0,30,0L0,0Z"></path></svg>